<?xml version="1.0" encoding="UTF-8"?>
<!DOCTYPE svg PUBLIC "-//W3C//DTD SVG 1.1//EN" "http://www.w3.org/Graphics/SVG/1.1/DTD/svg11.dtd">
<!-- Creator: CorelDRAW X6 -->
<svg xmlns="http://www.w3.org/2000/svg" xml:space="preserve" width="39.724in" height="6.4405in" version="1.1" style="shape-rendering:geometricPrecision; text-rendering:geometricPrecision; image-rendering:optimizeQuality; fill-rule:evenodd; clip-rule:evenodd"
viewBox="0 0 46154 7483"
 xmlns:xlink="http://www.w3.org/1999/xlink">
 <defs>
  <style type="text/css">
   <![CDATA[
    .str0 {stroke:#2C7A7A;stroke-width:228.714;stroke-linecap:round;stroke-linejoin:round}
    .fil4 {fill:none}
    .fil0 {fill:none;fill-rule:nonzero}
    .fil3 {fill:white}
    .fil2 {fill:#373435;fill-rule:nonzero}
    .fil1 {fill:#2C7A7A;fill-rule:nonzero}
   ]]>
  </style>
 </defs>
 <g id="Camada_x0020_1">
  <metadata id="CorelCorpID_0Corel-Layer"/>
  <path class="fil0" d="M15539 4017l0 564c0,75 -8,135 -22,180 -15,45 -42,86 -82,121 -40,36 -91,71 -152,105 -178,96 -349,166 -514,210 -165,44 -344,66 -538,66 -226,0 -433,-35 -618,-104 -187,-70 -345,-171 -476,-304 -132,-132 -232,-293 -302,-481 -71,-189 -106,-400 -106,-633 0,-229 34,-438 102,-629 69,-190 169,-351 302,-484 132,-132 293,-234 484,-304 190,-71 405,-106 647,-106 198,0 374,27 526,80 153,53 277,119 372,200 95,80 167,165 215,255 48,90 72,169 72,239 0,75 -28,139 -84,191 -56,53 -122,80 -200,80 -43,0 -84,-10 -123,-30 -40,-20 -73,-48 -99,-84 -74,-115 -136,-202 -187,-261 -51,-58 -120,-108 -206,-148 -86,-40 -197,-60 -330,-60 -138,0 -261,24 -370,71 -108,47 -201,117 -278,207 -77,90 -136,201 -177,332 -40,132 -61,277 -61,436 0,346 80,611 238,797 158,186 380,279 663,279 138,0 267,-18 389,-54 121,-36 244,-88 368,-155l0 -478 -461 0c-111,0 -195,-16 -252,-50 -57,-34 -85,-91 -85,-171 0,-65 24,-120 71,-163 47,-43 112,-64 194,-64l677 0c83,0 154,8 211,22 58,15 104,48 139,99 36,51 53,128 53,229z"/>
  <path id="1" class="fil0" d="M22587 4950l0 -54c-73,84 -146,153 -218,206 -71,53 -149,93 -233,121 -84,27 -175,41 -274,41 -131,0 -252,-28 -364,-84 -112,-56 -209,-134 -291,-238 -82,-103 -143,-224 -186,-363 -42,-139 -63,-290 -63,-452 0,-343 84,-610 251,-802 167,-191 388,-287 661,-287 158,0 291,27 400,82 108,54 215,138 317,251l0 -810c0,-112 23,-197 67,-255 45,-58 109,-86 192,-86 83,0 147,27 192,80 45,53 67,131 67,234l0 2418c0,104 -24,183 -72,235 -49,52 -111,78 -187,78 -75,0 -137,-27 -186,-82 -49,-54 -73,-132 -73,-232zm-1078 -805c0,149 23,275 69,380 46,104 109,182 190,235 80,53 168,80 263,80 97,0 184,-25 264,-75 80,-50 143,-127 191,-230 47,-104 71,-233 71,-389 0,-145 -24,-271 -71,-376 -47,-106 -112,-186 -193,-241 -81,-56 -169,-83 -266,-83 -100,0 -190,28 -269,85 -79,57 -140,139 -184,245 -43,107 -65,230 -65,370z"/>
  <path id="2" class="fil0" d="M17571 4950l0 -54c-73,84 -146,153 -218,206 -71,53 -149,93 -233,121 -84,27 -175,41 -274,41 -131,0 -252,-28 -364,-84 -112,-56 -209,-134 -291,-238 -82,-103 -143,-224 -186,-363 -42,-139 -63,-290 -63,-452 0,-343 84,-610 251,-802 167,-191 388,-287 661,-287 158,0 291,27 400,82 108,54 215,138 317,251l0 -810c0,-112 23,-197 67,-255 45,-58 109,-86 192,-86 83,0 147,27 192,80 45,53 67,131 67,234l0 2418c0,104 -24,183 -72,235 -49,52 -111,78 -187,78 -75,0 -137,-27 -186,-82 -49,-54 -73,-132 -73,-232zm-1078 -805c0,149 23,275 69,380 46,104 109,182 190,235 80,53 168,80 263,80 97,0 184,-25 264,-75 80,-50 143,-127 191,-230 47,-104 71,-233 71,-389 0,-145 -24,-271 -71,-376 -47,-106 -112,-186 -193,-241 -81,-56 -169,-83 -266,-83 -100,0 -190,28 -269,85 -79,57 -140,139 -184,245 -43,107 -65,230 -65,370z"/>
  <path id="3" class="fil0" d="M20170 4285l-1073 0c1,125 27,234 75,330 49,95 114,167 195,215 81,49 171,73 268,73 66,0 125,-8 180,-23 55,-15 107,-39 158,-72 51,-33 98,-68 141,-106 43,-38 99,-88 167,-153 28,-24 68,-36 120,-36 56,0 102,16 137,47 34,30 52,74 52,130 0,49 -20,107 -58,173 -39,66 -97,130 -176,190 -78,61 -176,112 -295,152 -119,40 -255,60 -409,60 -352,0 -626,-101 -821,-302 -195,-201 -293,-473 -293,-817 0,-162 24,-313 72,-451 48,-139 119,-257 210,-357 93,-99 206,-175 341,-228 135,-53 285,-80 450,-80 215,0 398,45 551,136 154,91 268,207 345,351 76,143 115,289 115,438 0,138 -40,228 -119,269 -79,40 -190,61 -333,61zm-1073 -313l994 0c-13,-187 -64,-327 -152,-420 -88,-93 -203,-139 -346,-139 -137,0 -249,47 -337,141 -88,95 -141,234 -160,418z"/>
  <path id="4" class="fil0" d="M25042 4956c-133,103 -261,180 -385,231 -124,51 -263,77 -417,77 -141,0 -265,-28 -371,-84 -106,-56 -189,-130 -246,-226 -58,-95 -86,-198 -86,-309 0,-150 47,-278 143,-383 95,-106 226,-177 393,-213 34,-8 121,-26 258,-54 138,-28 256,-53 354,-77 98,-23 205,-51 320,-85 -7,-145 -36,-251 -87,-318 -52,-68 -158,-101 -321,-101 -139,0 -244,19 -314,58 -71,38 -131,97 -181,175 -50,77 -86,128 -106,154 -21,25 -66,37 -134,37 -62,0 -115,-20 -160,-60 -45,-39 -67,-90 -67,-152 0,-97 34,-191 102,-282 69,-91 175,-166 320,-225 145,-59 325,-88 541,-88 241,0 431,29 568,86 138,57 235,147 292,270 57,123 86,287 86,490 0,129 -1,238 -1,328 -1,90 -1,190 -3,300 0,103 17,210 51,322 34,111 51,183 51,215 0,56 -26,108 -79,154 -53,46 -113,69 -180,69 -56,0 -112,-26 -167,-79 -55,-53 -113,-129 -175,-229zm-36 -795c-80,29 -197,61 -350,93 -153,33 -259,58 -318,73 -59,16 -115,46 -169,91 -53,45 -80,108 -80,189 0,83 32,154 95,212 62,58 145,88 247,88 108,0 208,-24 300,-71 92,-48 159,-109 202,-184 49,-83 74,-220 74,-411l0 -78z"/>
  <path id="5" class="fil0" d="M29186 4930l0 -2378c0,-110 25,-193 73,-249 49,-56 115,-84 197,-84 82,0 149,28 200,84 51,56 76,139 76,250l0 2378c0,111 -26,194 -77,250 -51,56 -118,84 -199,84 -80,0 -145,-29 -195,-86 -50,-58 -75,-140 -75,-247z"/>
  <path id="6" class="fil0" d="M31831 4285l-1073 0c1,125 27,234 75,330 49,95 114,167 195,215 81,49 171,73 268,73 66,0 125,-8 180,-23 55,-15 107,-39 158,-72 51,-33 98,-68 141,-106 43,-38 99,-88 167,-153 28,-24 68,-36 120,-36 56,0 102,16 137,47 34,30 52,74 52,130 0,49 -20,107 -58,173 -39,66 -97,130 -176,190 -78,61 -176,112 -295,152 -119,40 -255,60 -409,60 -352,0 -626,-101 -821,-302 -195,-201 -293,-473 -293,-817 0,-162 24,-313 72,-451 48,-139 119,-257 210,-357 93,-99 206,-175 341,-228 135,-53 285,-80 450,-80 215,0 398,45 551,136 154,91 268,207 345,351 76,143 115,289 115,438 0,138 -40,228 -119,269 -79,40 -190,61 -333,61zm-1073 -313l994 0c-13,-187 -64,-327 -152,-420 -88,-93 -203,-139 -346,-139 -137,0 -249,47 -337,141 -88,95 -141,234 -160,418z"/>
  <path id="7" class="fil0" d="M34247 4950l0 -54c-73,84 -146,153 -218,206 -71,53 -149,93 -233,121 -84,27 -175,41 -274,41 -131,0 -252,-28 -364,-84 -112,-56 -209,-134 -291,-238 -82,-103 -143,-224 -186,-363 -42,-139 -63,-290 -63,-452 0,-343 84,-610 251,-802 167,-191 388,-287 661,-287 158,0 291,27 400,82 108,54 215,138 317,251l0 -810c0,-112 23,-197 67,-255 45,-58 109,-86 192,-86 83,0 147,27 192,80 45,53 67,131 67,234l0 2418c0,104 -24,183 -72,235 -49,52 -111,78 -187,78 -75,0 -137,-27 -186,-82 -49,-54 -73,-132 -73,-232zm-1078 -805c0,149 23,275 69,380 46,104 109,182 190,235 80,53 168,80 263,80 97,0 184,-25 264,-75 80,-50 143,-127 191,-230 47,-104 71,-233 71,-389 0,-145 -24,-271 -71,-376 -47,-106 -112,-186 -193,-241 -81,-56 -169,-83 -266,-83 -100,0 -190,28 -269,85 -79,57 -140,139 -184,245 -43,107 -65,230 -65,370z"/>
  <path id="8" class="fil0" d="M36703 4956c-133,103 -261,180 -385,231 -124,51 -263,77 -417,77 -141,0 -265,-28 -371,-84 -106,-56 -189,-130 -246,-226 -58,-95 -86,-198 -86,-309 0,-150 47,-278 143,-383 95,-106 226,-177 393,-213 34,-8 121,-26 258,-54 138,-28 256,-53 354,-77 98,-23 205,-51 320,-85 -7,-145 -36,-251 -87,-318 -52,-68 -158,-101 -321,-101 -139,0 -244,19 -314,58 -71,38 -131,97 -181,175 -50,77 -86,128 -106,154 -21,25 -66,37 -134,37 -62,0 -115,-20 -160,-60 -45,-39 -67,-90 -67,-152 0,-97 34,-191 102,-282 69,-91 175,-166 320,-225 145,-59 325,-88 541,-88 241,0 431,29 568,86 138,57 235,147 292,270 57,123 86,287 86,490 0,129 -1,238 -1,328 -1,90 -1,190 -3,300 0,103 17,210 51,322 34,111 51,183 51,215 0,56 -26,108 -79,154 -53,46 -113,69 -180,69 -56,0 -112,-26 -167,-79 -55,-53 -113,-129 -175,-229zm-36 -795c-80,29 -197,61 -350,93 -153,33 -259,58 -318,73 -59,16 -115,46 -169,91 -53,45 -80,108 -80,189 0,83 32,154 95,212 62,58 145,88 247,88 108,0 208,-24 300,-71 92,-48 159,-109 202,-184 49,-83 74,-220 74,-411l0 -78z"/>
  <path id="9" class="fil0" d="M39584 4189l0 729c0,115 -26,202 -78,259 -52,58 -121,86 -206,86 -83,0 -150,-29 -202,-86 -51,-58 -77,-144 -77,-259l0 -874c0,-139 -5,-245 -14,-322 -9,-76 -34,-139 -76,-188 -42,-49 -107,-73 -197,-73 -180,0 -298,62 -354,185 -57,123 -86,300 -86,530l0 741c0,114 -26,200 -77,259 -51,58 -119,87 -203,87 -83,0 -151,-29 -204,-87 -53,-58 -80,-145 -80,-259l0 -1569c0,-103 24,-182 71,-235 47,-53 110,-80 187,-80 75,0 138,25 188,75 50,50 75,119 75,208l0 52c95,-114 197,-197 305,-251 108,-53 229,-80 361,-80 139,0 256,27 356,82 99,55 181,138 245,249 93,-112 192,-195 298,-250 106,-54 223,-82 352,-82 150,0 279,29 387,88 108,59 190,143 243,253 47,99 70,255 70,468l0 1071c0,115 -26,202 -78,259 -52,58 -121,86 -206,86 -83,0 -151,-29 -204,-87 -53,-58 -80,-145 -80,-259l0 -922c0,-118 -5,-212 -15,-283 -10,-71 -37,-130 -82,-179 -44,-48 -111,-72 -201,-72 -73,0 -141,21 -206,64 -64,43 -115,100 -152,173 -40,92 -60,256 -60,490z"/>
  <path id="10" class="fil0" d="M41764 5264c-83,0 -154,-27 -215,-80 -60,-53 -91,-129 -91,-225 0,-82 29,-152 86,-211 58,-59 129,-88 213,-88 84,0 156,29 216,87 60,58 89,129 89,213 0,95 -29,169 -89,224 -60,54 -130,82 -210,82z"/>
  <path id="11" class="fil0" d="M43232 4472l0 458c0,111 -26,194 -78,250 -52,56 -118,84 -198,84 -79,0 -144,-28 -195,-84 -51,-56 -76,-139 -76,-249l0 -1527c0,-246 89,-370 267,-370 91,0 156,29 196,86 40,58 62,143 67,256 65,-112 132,-198 202,-256 69,-58 161,-86 276,-86 115,0 227,29 335,86 108,58 163,134 163,230 0,67 -23,122 -69,166 -46,44 -96,65 -149,65 -20,0 -69,-12 -145,-37 -77,-25 -145,-37 -204,-37 -80,0 -145,21 -197,63 -51,43 -91,105 -119,188 -28,83 -47,182 -58,296 -10,115 -16,254 -16,418z"/>
  <path id="12" class="fil0" d="M46154 4548c0,151 -37,280 -110,388 -73,108 -182,189 -326,245 -144,56 -319,83 -525,83 -197,0 -365,-30 -506,-91 -141,-60 -244,-135 -311,-226 -67,-90 -100,-180 -100,-272 0,-60 21,-112 64,-154 43,-43 97,-64 163,-64 58,0 101,14 132,43 31,28 60,67 88,119 56,97 123,171 202,219 78,49 185,73 320,73 110,0 200,-25 269,-73 71,-49 106,-105 106,-168 0,-97 -36,-167 -109,-211 -73,-44 -193,-86 -361,-127 -189,-47 -342,-96 -461,-147 -118,-51 -213,-120 -284,-204 -71,-84 -106,-189 -106,-311 0,-110 33,-214 98,-312 66,-98 163,-176 291,-234 128,-58 282,-88 463,-88 142,0 269,14 382,44 113,29 208,69 283,119 76,50 134,105 173,165 40,60 60,119 60,177 0,62 -21,115 -64,154 -42,40 -102,60 -180,60 -56,0 -104,-16 -144,-48 -39,-32 -84,-80 -136,-145 -41,-53 -90,-97 -146,-129 -56,-32 -132,-48 -229,-48 -99,0 -181,21 -247,63 -65,43 -98,95 -98,158 0,58 24,105 72,141 49,37 113,68 195,92 82,24 194,53 337,88 170,41 309,91 417,149 108,58 189,125 245,204 56,78 84,167 84,268z"/>
  <path id="13" class="fil1" d="M15539 4017l0 564c0,75 -8,135 -22,180 -15,45 -42,86 -82,121 -40,36 -91,71 -152,105 -178,96 -349,166 -514,210 -165,44 -344,66 -538,66 -226,0 -433,-35 -618,-104 -187,-70 -345,-171 -476,-304 -132,-132 -232,-293 -302,-481 -71,-189 -106,-400 -106,-633 0,-229 34,-438 102,-629 69,-190 169,-351 302,-484 132,-132 293,-234 484,-304 190,-71 405,-106 647,-106 198,0 374,27 526,80 153,53 277,119 372,200 95,80 167,165 215,255 48,90 72,169 72,239 0,75 -28,139 -84,191 -56,53 -122,80 -200,80 -43,0 -84,-10 -123,-30 -40,-20 -73,-48 -99,-84 -74,-115 -136,-202 -187,-261 -51,-58 -120,-108 -206,-148 -86,-40 -197,-60 -330,-60 -138,0 -261,24 -370,71 -108,47 -201,117 -278,207 -77,90 -136,201 -177,332 -40,132 -61,277 -61,436 0,346 80,611 238,797 158,186 380,279 663,279 138,0 267,-18 389,-54 121,-36 244,-88 368,-155l0 -478 -461 0c-111,0 -195,-16 -252,-50 -57,-34 -85,-91 -85,-171 0,-65 24,-120 71,-163 47,-43 112,-64 194,-64l677 0c83,0 154,8 211,22 58,15 104,48 139,99 36,51 53,128 53,229z"/>
  <path id="14" class="fil1" d="M22587 4950l0 -54c-73,84 -146,153 -218,206 -71,53 -149,93 -233,121 -84,27 -175,41 -274,41 -131,0 -252,-28 -364,-84 -112,-56 -209,-134 -291,-238 -82,-103 -143,-224 -186,-363 -42,-139 -63,-290 -63,-452 0,-343 84,-610 251,-802 167,-191 388,-287 661,-287 158,0 291,27 400,82 108,54 215,138 317,251l0 -810c0,-112 23,-197 67,-255 45,-58 109,-86 192,-86 83,0 147,27 192,80 45,53 67,131 67,234l0 2418c0,104 -24,183 -72,235 -49,52 -111,78 -187,78 -75,0 -137,-27 -186,-82 -49,-54 -73,-132 -73,-232zm-1078 -805c0,149 23,275 69,380 46,104 109,182 190,235 80,53 168,80 263,80 97,0 184,-25 264,-75 80,-50 143,-127 191,-230 47,-104 71,-233 71,-389 0,-145 -24,-271 -71,-376 -47,-106 -112,-186 -193,-241 -81,-56 -169,-83 -266,-83 -100,0 -190,28 -269,85 -79,57 -140,139 -184,245 -43,107 -65,230 -65,370z"/>
  <path id="15" class="fil2" d="M17571 4950l0 -54c-73,84 -146,153 -218,206 -71,53 -149,93 -233,121 -84,27 -175,41 -274,41 -131,0 -252,-28 -364,-84 -112,-56 -209,-134 -291,-238 -82,-103 -143,-224 -186,-363 -42,-139 -63,-290 -63,-452 0,-343 84,-610 251,-802 167,-191 388,-287 661,-287 158,0 291,27 400,82 108,54 215,138 317,251l0 -810c0,-112 23,-197 67,-255 45,-58 109,-86 192,-86 83,0 147,27 192,80 45,53 67,131 67,234l0 2418c0,104 -24,183 -72,235 -49,52 -111,78 -187,78 -75,0 -137,-27 -186,-82 -49,-54 -73,-132 -73,-232zm-1078 -805c0,149 23,275 69,380 46,104 109,182 190,235 80,53 168,80 263,80 97,0 184,-25 264,-75 80,-50 143,-127 191,-230 47,-104 71,-233 71,-389 0,-145 -24,-271 -71,-376 -47,-106 -112,-186 -193,-241 -81,-56 -169,-83 -266,-83 -100,0 -190,28 -269,85 -79,57 -140,139 -184,245 -43,107 -65,230 -65,370z"/>
  <path id="16" class="fil2" d="M20170 4285l-1073 0c1,125 27,234 75,330 49,95 114,167 195,215 81,49 171,73 268,73 66,0 125,-8 180,-23 55,-15 107,-39 158,-72 51,-33 98,-68 141,-106 43,-38 99,-88 167,-153 28,-24 68,-36 120,-36 56,0 102,16 137,47 34,30 52,74 52,130 0,49 -20,107 -58,173 -39,66 -97,130 -176,190 -78,61 -176,112 -295,152 -119,40 -255,60 -409,60 -352,0 -626,-101 -821,-302 -195,-201 -293,-473 -293,-817 0,-162 24,-313 72,-451 48,-139 119,-257 210,-357 93,-99 206,-175 341,-228 135,-53 285,-80 450,-80 215,0 398,45 551,136 154,91 268,207 345,351 76,143 115,289 115,438 0,138 -40,228 -119,269 -79,40 -190,61 -333,61zm-1073 -313l994 0c-13,-187 -64,-327 -152,-420 -88,-93 -203,-139 -346,-139 -137,0 -249,47 -337,141 -88,95 -141,234 -160,418z"/>
  <path id="17" class="fil2" d="M25042 4956c-133,103 -261,180 -385,231 -124,51 -263,77 -417,77 -141,0 -265,-28 -371,-84 -106,-56 -189,-130 -246,-226 -58,-95 -86,-198 -86,-309 0,-150 47,-278 143,-383 95,-106 226,-177 393,-213 34,-8 121,-26 258,-54 138,-28 256,-53 354,-77 98,-23 205,-51 320,-85 -7,-145 -36,-251 -87,-318 -52,-68 -158,-101 -321,-101 -139,0 -244,19 -314,58 -71,38 -131,97 -181,175 -50,77 -86,128 -106,154 -21,25 -66,37 -134,37 -62,0 -115,-20 -160,-60 -45,-39 -67,-90 -67,-152 0,-97 34,-191 102,-282 69,-91 175,-166 320,-225 145,-59 325,-88 541,-88 241,0 431,29 568,86 138,57 235,147 292,270 57,123 86,287 86,490 0,129 -1,238 -1,328 -1,90 -1,190 -3,300 0,103 17,210 51,322 34,111 51,183 51,215 0,56 -26,108 -79,154 -53,46 -113,69 -180,69 -56,0 -112,-26 -167,-79 -55,-53 -113,-129 -175,-229zm-36 -795c-80,29 -197,61 -350,93 -153,33 -259,58 -318,73 -59,16 -115,46 -169,91 -53,45 -80,108 -80,189 0,83 32,154 95,212 62,58 145,88 247,88 108,0 208,-24 300,-71 92,-48 159,-109 202,-184 49,-83 74,-220 74,-411l0 -78z"/>
  <path id="18" class="fil2" d="M29186 4930l0 -2378c0,-110 25,-193 73,-249 49,-56 115,-84 197,-84 82,0 149,28 200,84 51,56 76,139 76,250l0 2378c0,111 -26,194 -77,250 -51,56 -118,84 -199,84 -80,0 -145,-29 -195,-86 -50,-58 -75,-140 -75,-247z"/>
  <path id="19" class="fil2" d="M31831 4285l-1073 0c1,125 27,234 75,330 49,95 114,167 195,215 81,49 171,73 268,73 66,0 125,-8 180,-23 55,-15 107,-39 158,-72 51,-33 98,-68 141,-106 43,-38 99,-88 167,-153 28,-24 68,-36 120,-36 56,0 102,16 137,47 34,30 52,74 52,130 0,49 -20,107 -58,173 -39,66 -97,130 -176,190 -78,61 -176,112 -295,152 -119,40 -255,60 -409,60 -352,0 -626,-101 -821,-302 -195,-201 -293,-473 -293,-817 0,-162 24,-313 72,-451 48,-139 119,-257 210,-357 93,-99 206,-175 341,-228 135,-53 285,-80 450,-80 215,0 398,45 551,136 154,91 268,207 345,351 76,143 115,289 115,438 0,138 -40,228 -119,269 -79,40 -190,61 -333,61zm-1073 -313l994 0c-13,-187 -64,-327 -152,-420 -88,-93 -203,-139 -346,-139 -137,0 -249,47 -337,141 -88,95 -141,234 -160,418z"/>
  <path id="20" class="fil2" d="M34247 4950l0 -54c-73,84 -146,153 -218,206 -71,53 -149,93 -233,121 -84,27 -175,41 -274,41 -131,0 -252,-28 -364,-84 -112,-56 -209,-134 -291,-238 -82,-103 -143,-224 -186,-363 -42,-139 -63,-290 -63,-452 0,-343 84,-610 251,-802 167,-191 388,-287 661,-287 158,0 291,27 400,82 108,54 215,138 317,251l0 -810c0,-112 23,-197 67,-255 45,-58 109,-86 192,-86 83,0 147,27 192,80 45,53 67,131 67,234l0 2418c0,104 -24,183 -72,235 -49,52 -111,78 -187,78 -75,0 -137,-27 -186,-82 -49,-54 -73,-132 -73,-232zm-1078 -805c0,149 23,275 69,380 46,104 109,182 190,235 80,53 168,80 263,80 97,0 184,-25 264,-75 80,-50 143,-127 191,-230 47,-104 71,-233 71,-389 0,-145 -24,-271 -71,-376 -47,-106 -112,-186 -193,-241 -81,-56 -169,-83 -266,-83 -100,0 -190,28 -269,85 -79,57 -140,139 -184,245 -43,107 -65,230 -65,370z"/>
  <path id="21" class="fil2" d="M36703 4956c-133,103 -261,180 -385,231 -124,51 -263,77 -417,77 -141,0 -265,-28 -371,-84 -106,-56 -189,-130 -246,-226 -58,-95 -86,-198 -86,-309 0,-150 47,-278 143,-383 95,-106 226,-177 393,-213 34,-8 121,-26 258,-54 138,-28 256,-53 354,-77 98,-23 205,-51 320,-85 -7,-145 -36,-251 -87,-318 -52,-68 -158,-101 -321,-101 -139,0 -244,19 -314,58 -71,38 -131,97 -181,175 -50,77 -86,128 -106,154 -21,25 -66,37 -134,37 -62,0 -115,-20 -160,-60 -45,-39 -67,-90 -67,-152 0,-97 34,-191 102,-282 69,-91 175,-166 320,-225 145,-59 325,-88 541,-88 241,0 431,29 568,86 138,57 235,147 292,270 57,123 86,287 86,490 0,129 -1,238 -1,328 -1,90 -1,190 -3,300 0,103 17,210 51,322 34,111 51,183 51,215 0,56 -26,108 -79,154 -53,46 -113,69 -180,69 -56,0 -112,-26 -167,-79 -55,-53 -113,-129 -175,-229zm-36 -795c-80,29 -197,61 -350,93 -153,33 -259,58 -318,73 -59,16 -115,46 -169,91 -53,45 -80,108 -80,189 0,83 32,154 95,212 62,58 145,88 247,88 108,0 208,-24 300,-71 92,-48 159,-109 202,-184 49,-83 74,-220 74,-411l0 -78z"/>
  <path id="22" class="fil2" d="M39584 4189l0 729c0,115 -26,202 -78,259 -52,58 -121,86 -206,86 -83,0 -150,-29 -202,-86 -51,-58 -77,-144 -77,-259l0 -874c0,-139 -5,-245 -14,-322 -9,-76 -34,-139 -76,-188 -42,-49 -107,-73 -197,-73 -180,0 -298,62 -354,185 -57,123 -86,300 -86,530l0 741c0,114 -26,200 -77,259 -51,58 -119,87 -203,87 -83,0 -151,-29 -204,-87 -53,-58 -80,-145 -80,-259l0 -1569c0,-103 24,-182 71,-235 47,-53 110,-80 187,-80 75,0 138,25 188,75 50,50 75,119 75,208l0 52c95,-114 197,-197 305,-251 108,-53 229,-80 361,-80 139,0 256,27 356,82 99,55 181,138 245,249 93,-112 192,-195 298,-250 106,-54 223,-82 352,-82 150,0 279,29 387,88 108,59 190,143 243,253 47,99 70,255 70,468l0 1071c0,115 -26,202 -78,259 -52,58 -121,86 -206,86 -83,0 -151,-29 -204,-87 -53,-58 -80,-145 -80,-259l0 -922c0,-118 -5,-212 -15,-283 -10,-71 -37,-130 -82,-179 -44,-48 -111,-72 -201,-72 -73,0 -141,21 -206,64 -64,43 -115,100 -152,173 -40,92 -60,256 -60,490z"/>
  <path id="23" class="fil2" d="M41764 5264c-83,0 -154,-27 -215,-80 -60,-53 -91,-129 -91,-225 0,-82 29,-152 86,-211 58,-59 129,-88 213,-88 84,0 156,29 216,87 60,58 89,129 89,213 0,95 -29,169 -89,224 -60,54 -130,82 -210,82z"/>
  <path id="24" class="fil2" d="M43232 4472l0 458c0,111 -26,194 -78,250 -52,56 -118,84 -198,84 -79,0 -144,-28 -195,-84 -51,-56 -76,-139 -76,-249l0 -1527c0,-246 89,-370 267,-370 91,0 156,29 196,86 40,58 62,143 67,256 65,-112 132,-198 202,-256 69,-58 161,-86 276,-86 115,0 227,29 335,86 108,58 163,134 163,230 0,67 -23,122 -69,166 -46,44 -96,65 -149,65 -20,0 -69,-12 -145,-37 -77,-25 -145,-37 -204,-37 -80,0 -145,21 -197,63 -51,43 -91,105 -119,188 -28,83 -47,182 -58,296 -10,115 -16,254 -16,418z"/>
  <path id="25" class="fil2" d="M46154 4548c0,151 -37,280 -110,388 -73,108 -182,189 -326,245 -144,56 -319,83 -525,83 -197,0 -365,-30 -506,-91 -141,-60 -244,-135 -311,-226 -67,-90 -100,-180 -100,-272 0,-60 21,-112 64,-154 43,-43 97,-64 163,-64 58,0 101,14 132,43 31,28 60,67 88,119 56,97 123,171 202,219 78,49 185,73 320,73 110,0 200,-25 269,-73 71,-49 106,-105 106,-168 0,-97 -36,-167 -109,-211 -73,-44 -193,-86 -361,-127 -189,-47 -342,-96 -461,-147 -118,-51 -213,-120 -284,-204 -71,-84 -106,-189 -106,-311 0,-110 33,-214 98,-312 66,-98 163,-176 291,-234 128,-58 282,-88 463,-88 142,0 269,14 382,44 113,29 208,69 283,119 76,50 134,105 173,165 40,60 60,119 60,177 0,62 -21,115 -64,154 -42,40 -102,60 -180,60 -56,0 -104,-16 -144,-48 -39,-32 -84,-80 -136,-145 -41,-53 -90,-97 -146,-129 -56,-32 -132,-48 -229,-48 -99,0 -181,21 -247,63 -65,43 -98,95 -98,158 0,58 24,105 72,141 49,37 113,68 195,92 82,24 194,53 337,88 170,41 309,91 417,149 108,58 189,125 245,204 56,78 84,167 84,268z"/>
  <path class="fil1" d="M26048 4110l0 564c0,75 8,135 22,180 15,45 42,86 82,121 40,36 91,71 152,105 178,96 349,166 514,210 165,44 344,66 538,66 226,0 433,-35 618,-104 187,-70 345,-171 476,-304 132,-132 232,-293 302,-481 71,-189 106,-400 106,-633 0,-229 -34,-438 -102,-629 -69,-190 -169,-351 -302,-484 -132,-132 -293,-234 -484,-304 -190,-71 -405,-106 -647,-106 -198,0 -374,27 -526,80 -153,53 -277,119 -372,200 -95,80 -167,165 -215,255 -48,90 -72,169 -72,239 0,75 28,139 84,191 56,53 122,80 200,80 43,0 84,-10 123,-30 40,-20 73,-48 99,-84 74,-115 136,-202 187,-261 51,-58 120,-108 206,-148 86,-40 197,-60 330,-60 138,0 261,24 370,71 108,47 201,117 278,207 77,90 136,201 177,332 40,132 61,277 61,436 0,346 -80,611 -238,797 -158,186 -380,279 -663,279 -138,0 -267,-18 -389,-54 -121,-36 -244,-88 -368,-155l0 -478 461 0c111,0 195,-16 252,-50 57,-34 85,-91 85,-171 0,-65 -24,-120 -71,-163 -47,-43 -112,-64 -194,-64l-677 0c-83,0 -154,8 -211,22 -58,15 -104,48 -139,99 -36,51 -53,128 -53,229z"/>
  <g id="_1068041904">
   <g>
    <path class="fil1" d="M9883 461l-8896 1085 -55 -455 8896 -1085 55 455zm904 329l-381 47 0 0 -3 -20 -4 -20 -5 -19 -6 -19 -7 -19 -8 -18 -9 -18 -10 -18 -11 -17 -12 -17 -13 -17 -13 -16 -14 -16 -15 -15 -16 -15 -17 -14 -18 -13 -19 -13 -20 -12 -20 -11 -21 -10 -22 -9 -22 -8 -23 -7 -23 -6 -24 -5 -24 -4 -25 -3 -25 -1 -25 0 -26 1 -26 2 -55 -455 42 -4 42 -2 42 0 41 2 41 4 41 6 40 8 40 10 39 12 38 14 38 16 37 18 36 20 35 21 34 23 33 25 32 27 31 28 30 30 29 32 28 33 26 35 25 36 23 38 21 39 20 41 18 42 16 43 14 45 12 46 9 47 7 48 0 0zm178 4634l-560 -4588 381 -47 560 4588 -381 47zm-362 945l-55 -455 0 0 26 -4 25 -5 24 -6 24 -7 23 -8 23 -10 22 -11 21 -11 20 -12 20 -13 19 -14 18 -15 17 -16 16 -16 15 -17 14 -17 13 -18 12 -18 11 -18 10 -19 9 -19 8 -19 7 -19 6 -19 5 -19 4 -20 3 -20 2 -20 1 -20 0 -20 -1 -20 -2 -20 381 -47 5 48 2 48 0 47 -3 47 -5 46 -7 45 -9 44 -11 43 -13 42 -15 41 -17 40 -19 39 -20 38 -22 36 -24 35 -25 34 -26 32 -28 31 -29 29 -30 28 -32 26 -33 25 -34 23 -35 21 -36 20 -37 18 -38 16 -39 14 -40 12 -40 10 -41 8 -42 6 0 0zm-8952 630l8896 -1085 55 455 -8896 1085 -55 -455zm-904 -329l381 -47 0 0 3 20 4 20 5 19 6 19 7 19 8 18 9 18 10 18 11 17 12 17 13 17 13 16 14 16 15 15 16 15 17 14 18 13 19 13 20 12 20 11 21 10 22 9 22 8 23 7 23 6 24 5 24 4 25 3 25 1 25 0 26 -1 26 -2 55 455 -42 4 -42 2 -42 0 -41 -2 -41 -4 -41 -6 -40 -8 -40 -10 -39 -12 -38 -14 -38 -16 -37 -18 -36 -20 -35 -21 -34 -23 -33 -25 -32 -27 -31 -28 -30 -30 -29 -32 -28 -33 -26 -35 -25 -36 -23 -38 -21 -39 -20 -41 -18 -42 -16 -43 -14 -45 -12 -46 -9 -47 -7 -48 0 0zm-178 -4634l560 4588 -381 47 -560 -4588 381 -47zm362 -945l55 455 0 0 -26 4 -25 5 -24 6 -24 7 -23 8 -23 10 -22 11 -21 11 -20 12 -20 13 -19 14 -18 15 -17 16 -16 16 -15 17 -14 17 -13 18 -12 18 -11 18 -10 19 -9 19 -8 19 -7 19 -6 19 -5 19 -4 20 -3 20 -2 20 -1 20 0 20 1 20 2 20 -381 47 -5 -48 -2 -48 0 -47 3 -47 5 -46 7 -45 9 -44 11 -43 13 -42 15 -41 17 -40 19 -39 20 -38 22 -36 24 -35 25 -34 26 -32 28 -31 29 -29 30 -28 32 -26 33 -25 34 -23 35 -21 36 -20 37 -18 38 -16 39 -14 40 -12 40 -10 41 -8 42 -6 0 0z"/>
    <path id="1" class="fil3" d="M959 1319l8896 -1085c363,-44 697,217 741,580l560 4588c44,363 -217,697 -580,741l-8896 1085c-363,44 -697,-217 -741,-580l-560 -4588c-44,-363 217,-697 580,-741z"/>
   </g>
   <g>
    <path class="fil1" d="M9702 483l-8896 1085 -55 -455 8896 -1085 0 0 55 455zm904 329l-381 47 0 0 -3 -20 -4 -20 -5 -19 -6 -19 -7 -19 -8 -18 -9 -18 -10 -18 -11 -17 -12 -17 -13 -17 -13 -16 -14 -16 -15 -15 -16 -15 -17 -14 -18 -13 -19 -13 -20 -12 -20 -11 -21 -10 -22 -9 -22 -8 -23 -7 -23 -6 -24 -5 -24 -4 -25 -3 -25 -1 -25 0 -26 1 -26 2 -55 -455 42 -4 42 -2 42 0 41 2 41 4 41 6 40 8 40 10 39 12 38 14 38 16 37 18 36 20 35 21 34 23 33 25 32 27 31 28 30 30 29 32 28 33 26 35 25 36 23 38 21 39 20 41 18 42 16 43 14 45 12 46 9 47 7 48 0 0zm178 4634l-560 -4588 381 -47 560 4588 -381 47zm-362 945l-55 -455 0 0 26 -4 25 -5 24 -6 24 -7 23 -8 23 -10 22 -11 21 -11 20 -12 20 -13 19 -14 18 -15 17 -16 16 -16 15 -17 14 -17 13 -18 12 -18 11 -19 10 -19 9 -19 8 -19 7 -19 6 -19 5 -19 4 -20 3 -20 2 -20 1 -20 0 -20 -1 -20 -2 -20 381 -47 5 48 2 48 0 47 -3 47 -5 46 -7 45 -9 44 -11 43 -13 42 -15 41 -17 40 -19 39 -20 38 -22 36 -24 35 -25 34 -26 32 -28 31 -29 29 -30 28 -32 26 -33 25 -34 23 -35 21 -36 20 -37 18 -38 16 -39 14 -40 12 -40 10 -41 8 -42 6 0 0zm-8952 630l8896 -1085 55 455 -8896 1085 -55 -455zm-904 -329l381 -47 0 0 3 20 4 20 5 19 6 19 7 19 8 18 9 18 10 18 11 17 12 17 13 17 13 16 14 16 15 15 16 15 17 14 18 13 19 13 20 12 20 11 21 10 22 9 22 8 23 7 23 6 24 5 24 4 25 3 25 1 25 0 26 -1 26 -2 55 455 -42 4 -42 2 -42 0 -41 -2 -41 -4 -41 -6 -40 -8 -40 -10 -39 -12 -38 -14 -38 -16 -37 -18 -36 -20 -35 -21 -34 -23 -33 -25 -32 -27 -31 -28 -30 -30 -29 -32 -28 -33 -26 -35 -25 -36 -23 -38 -21 -39 -20 -41 -18 -42 -16 -43 -14 -45 -12 -46 -9 -47 -7 -48 0 0zm-178 -4634l560 4588 -381 47 -560 -4588 381 -47zm362 -945l55 455 0 0 -26 4 -25 5 -24 6 -24 7 -23 8 -23 10 -22 11 -21 11 -20 12 -20 13 -19 14 -18 15 -17 16 -16 16 -15 17 -14 17 -13 18 -12 18 -11 18 -10 19 -9 19 -8 19 -7 19 -6 19 -5 19 -4 20 -3 20 -2 20 -1 20 0 20 1 20 2 20 -381 47 -5 -48 -2 -48 0 -47 3 -47 5 -46 7 -45 9 -44 11 -43 13 -42 15 -41 17 -40 19 -39 20 -38 22 -36 24 -35 25 -34 26 -32 28 -31 29 -29 30 -28 32 -26 33 -25 34 -23 35 -21 36 -20 37 -18 38 -16 39 -14 40 -12 40 -10 41 -8 42 -6 0 0z"/>
    <path id="1" class="fil3" d="M777 1341l8896 -1085c363,-44 697,217 741,580l560 4588c44,363 -217,697 -580,741l-8896 1085c-363,44 -697,-217 -741,-580l-560 -4588c-44,-363 217,-697 580,-741z"/>
   </g>
   <g>
    <path class="fil1" d="M9792 472l-8896 1085 -55 -455 8896 -1085 55 455zm904 329l-381 47 0 0 -3 -20 -4 -20 -5 -19 -6 -19 -7 -19 -8 -18 -9 -18 -10 -18 -11 -17 -12 -17 -13 -17 -13 -16 -14 -16 -15 -15 -16 -15 -17 -14 -18 -13 -19 -13 -20 -12 -20 -11 -21 -10 -22 -9 -22 -8 -23 -7 -23 -6 -24 -5 -24 -4 -25 -3 -25 -1 -25 0 -26 1 -26 2 -55 -455 42 -4 42 -2 42 0 41 2 41 4 41 6 40 8 40 10 39 12 38 14 38 16 37 18 36 20 35 21 34 23 33 25 32 27 31 28 30 30 29 32 28 33 26 35 25 36 23 38 21 39 20 41 18 42 16 43 14 45 12 46 9 47 7 48 0 0zm178 4634l-560 -4588 381 -47 560 4588 -381 47zm-362 945l-55 -455 0 0 26 -4 25 -5 24 -6 24 -7 23 -8 23 -10 22 -11 21 -11 20 -12 20 -13 19 -14 18 -15 17 -16 16 -16 15 -17 14 -17 13 -18 12 -18 11 -18 10 -19 9 -19 8 -19 7 -19 6 -19 5 -19 4 -20 3 -20 2 -20 1 -20 0 -20 -1 -20 -2 -20 381 -47 5 48 2 48 0 47 -3 47 -5 46 -7 45 -9 44 -11 43 -13 42 -15 41 -17 40 -19 39 -20 38 -22 36 -24 35 -25 34 -26 32 -28 31 -29 29 -30 28 -32 26 -33 25 -34 23 -35 21 -36 20 -37 18 -38 16 -39 14 -40 12 -40 10 -41 8 -42 6 0 0zm-8952 630l8896 -1085 55 455 -8896 1085 -55 -455zm-904 -329l381 -47 0 0 3 20 4 20 5 19 6 19 7 19 8 18 9 18 10 18 11 17 12 17 13 17 13 16 14 16 15 15 16 15 17 14 18 13 19 13 20 12 20 11 21 10 22 9 22 8 23 7 23 6 24 5 24 4 25 3 25 1 25 0 26 -1 26 -2 55 455 -42 4 -42 2 -42 0 -41 -2 -41 -4 -41 -6 -40 -8 -40 -10 -39 -12 -38 -14 -38 -16 -37 -18 -36 -20 -35 -21 -34 -23 -33 -25 -32 -27 -31 -28 -30 -30 -29 -32 -28 -33 -26 -35 -25 -36 -23 -38 -21 -39 -20 -41 -18 -42 -16 -43 -14 -45 -12 -46 -9 -47 -7 -48 0 0zm-178 -4634l560 4588 -381 47 -560 -4588 381 -47zm362 -945l55 455 0 0 -26 4 -25 5 -24 6 -24 7 -23 8 -23 10 -22 11 -21 11 -20 12 -20 13 -19 14 -18 15 -17 16 -16 16 -15 17 -14 17 -13 18 -12 18 -11 18 -10 19 -9 19 -8 19 -7 19 -6 19 -5 19 -4 20 -3 20 -2 20 -1 20 0 20 1 20 2 20 -381 47 -5 -48 -2 -48 0 -47 3 -47 5 -46 7 -45 9 -44 11 -43 13 -42 15 -41 17 -40 19 -39 20 -38 22 -36 24 -35 25 -34 26 -32 28 -31 29 -29 30 -28 32 -26 33 -25 34 -23 35 -21 36 -20 37 -18 38 -16 39 -14 40 -12 40 -10 41 -8 42 -6 0 0z"/>
    <path id="1" class="fil3" d="M868 1330l8896 -1085c363,-44 697,217 741,580l560 4588c44,363 -217,697 -580,741l-8896 1085c-363,44 -697,-217 -741,-580l-560 -4588c-44,-363 217,-697 580,-741z"/>
   </g>
   <path class="fil1" d="M7024 3005l68 560c9,75 24,133 44,176 20,43 52,80 96,111 44,31 98,60 164,86 188,74 367,122 535,147 169,24 350,24 542,0 225,-27 425,-87 601,-178 177,-92 322,-211 436,-359 115,-147 195,-319 242,-514 47,-196 56,-410 28,-641 -28,-227 -87,-431 -178,-612 -91,-180 -210,-328 -358,-444 -147,-115 -320,-197 -517,-243 -197,-47 -415,-56 -655,-27 -197,24 -368,72 -512,143 -145,71 -261,152 -345,243 -85,91 -145,184 -183,279 -37,95 -51,177 -42,246 9,74 45,134 106,180 62,46 131,64 208,55 42,-5 82,-20 119,-45 37,-25 66,-56 89,-95 60,-123 110,-217 154,-282 44,-64 106,-122 186,-172 81,-51 188,-84 321,-100 137,-17 262,-8 375,26 113,34 214,91 301,172 87,80 159,183 216,308 56,126 94,268 113,425 42,343 -5,616 -140,820 -135,204 -343,323 -624,357 -137,17 -268,15 -392,-7 -124,-21 -253,-58 -384,-109l-58 -474 458 -56c110,-13 192,-40 244,-80 52,-40 73,-100 64,-180 -8,-65 -38,-116 -90,-153 -52,-37 -119,-50 -200,-40l-672 82c-82,10 -152,26 -207,47 -55,22 -98,60 -126,115 -29,55 -38,133 -25,234z"/>
   <path class="fil1" d="M4192 3357l67 560c9,74 9,134 0,181 -10,47 -32,90 -67,130 -35,40 -81,82 -138,122 -165,116 -327,207 -486,270 -158,64 -333,107 -527,130 -224,27 -433,17 -626,-30 -193,-47 -363,-128 -509,-244 -147,-116 -266,-264 -358,-442 -92,-179 -153,-384 -181,-615 -27,-227 -18,-439 27,-636 45,-197 125,-369 241,-516 116,-147 264,-267 444,-360 180,-92 390,-153 630,-182 197,-23 374,-18 532,16 158,34 289,85 393,154 103,68 185,143 244,227 58,83 92,159 100,228 9,74 -11,141 -60,200 -49,59 -112,93 -189,102 -43,5 -85,1 -126,-15 -42,-15 -78,-39 -109,-71 -87,-106 -159,-185 -216,-237 -58,-52 -132,-93 -222,-123 -90,-30 -202,-36 -335,-20 -137,16 -256,55 -358,115 -102,60 -186,140 -252,238 -65,99 -111,216 -135,351 -25,135 -28,282 -9,440 41,343 151,597 331,763 180,165 410,231 692,197 136,-16 263,-50 379,-100 116,-51 232,-116 347,-198l-57 -475 -459 55c-110,13 -195,7 -256,-20 -60,-26 -95,-80 -105,-159 -8,-65 9,-121 51,-170 43,-48 104,-77 185,-87l672 -80c82,-10 153,-12 212,-3 59,8 109,34 150,81 42,46 68,119 80,221z"/>
   <path class="fil1" d="M6268 4836l-5 -41c-48,70 -96,128 -145,174 -49,46 -104,83 -164,111 -61,28 -128,47 -202,55 -98,12 -192,2 -281,-30 -89,-32 -169,-83 -239,-152 -70,-70 -128,-156 -172,-256 -44,-101 -73,-212 -88,-333 -31,-258 8,-465 116,-624 108,-158 264,-250 470,-275 119,-14 221,-6 307,25 86,31 173,84 261,159l-73 -606c-10,-84 -1,-150 28,-197 29,-47 74,-75 136,-82 62,-8 112,6 151,42 39,35 63,92 72,169l218 1813c9,78 -2,139 -33,183 -31,43 -76,68 -133,76 -56,7 -105,-8 -147,-44 -42,-36 -67,-92 -76,-167zm-881 -507c13,112 42,205 86,279 44,74 98,128 163,160 65,32 133,44 205,35 72,-8 136,-35 191,-80 55,-45 96,-108 122,-191 26,-82 32,-181 18,-298 -13,-110 -42,-202 -87,-276 -45,-75 -100,-129 -166,-164 -66,-34 -135,-47 -207,-39 -76,9 -140,39 -194,88 -54,50 -92,117 -116,200 -23,84 -28,179 -15,284z"/>
   <g>
    <line class="fil4 str0" x1="3570" y1="6060" x2="8279" y2= "5486" />
   </g>
  </g>
 </g>
</svg>
